<?xml version="1.0" encoding="UTF-8"?>
<!DOCTYPE svg PUBLIC "-//W3C//DTD SVG 1.1//EN" "http://www.w3.org/Graphics/SVG/1.1/DTD/svg11.dtd">
<svg xmlns="http://www.w3.org/2000/svg" version="1.1" width="80px" height="79px" style="shape-rendering:geometricPrecision; text-rendering:geometricPrecision; image-rendering:optimizeQuality; fill-rule:evenodd; clip-rule:evenodd" xmlns:xlink="http://www.w3.org/1999/xlink">
<g><path style="opacity:1" fill="#000000" d="M 37.5,-0.5 C 38.8333,-0.5 40.1667,-0.5 41.5,-0.5C 44.0954,1.01439 45.4287,3.34772 45.5,6.5C 49.9703,7.3679 54.3036,8.70124 58.5,10.5C 63.9714,7.11287 67.6381,8.4462 69.5,14.5C 69.2395,16.1871 68.5728,17.6871 67.5,19C 69,19.8333 70.1667,21 71,22.5C 72.0681,25.871 73.2347,29.2043 74.5,32.5C 76.0287,33.7629 77.6954,34.7629 79.5,35.5C 79.5,38.1667 79.5,40.8333 79.5,43.5C 78.1932,44.1534 76.8599,44.8201 75.5,45.5C 73.5878,49.7521 71.5878,53.9188 69.5,58C 72.7828,63.2668 71.4495,66.7668 65.5,68.5C 63.8129,68.2395 62.3129,67.5728 61,66.5C 56.8271,69.5497 52.1604,71.5497 47,72.5C 45.3812,74.7713 43.5478,76.7713 41.5,78.5C 40.1667,78.5 38.8333,78.5 37.5,78.5C 35.4002,76.502 33.4002,74.3353 31.5,72C 26.5161,71.3404 22.1827,69.3404 18.5,66C 8.36797,68.208 5.03464,64.5413 8.5,55C 7.0444,51.6005 6.0444,48.1005 5.5,44.5C 3.29719,44.3964 1.29719,43.7298 -0.5,42.5C -0.5,39.8333 -0.5,37.1667 -0.5,34.5C 1.61208,33.4059 3.77875,32.4059 6,31.5C 7.02032,27.5982 8.52032,23.9315 10.5,20.5C 7.24833,10.9196 10.415,7.91963 20,11.5C 23.5286,9.32144 27.3619,7.82144 31.5,7C 33.1561,4.16653 35.1561,1.66653 37.5,-0.5 Z M 38.5,27.5 C 43.1542,27.3282 47.1542,28.8282 50.5,32C 54.9474,37.9807 54.2808,43.314 48.5,48C 38.5848,52.4254 31.9182,49.5921 28.5,39.5C 29.357,33.319 32.6904,29.319 38.5,27.5 Z"/></g>
<g><path style="opacity:1" fill="#616261" d="M 38.5,1.5 C 41.9655,2.23517 43.9655,4.40184 44.5,8C 49.1781,9.50207 53.8448,11.0021 58.5,12.5C 62.4172,9.30021 65.4172,9.96688 67.5,14.5C 64.5217,18.0685 65.0217,21.0685 69,23.5C 70.1365,27.2432 71.4698,30.9099 73,34.5C 79,37.8333 79,41.1667 73,44.5C 71.5198,48.6151 69.8532,52.6151 68,56.5C 67.5706,58.6687 68.0706,60.6687 69.5,62.5C 68.8333,64.5 67.5,65.8333 65.5,66.5C 63.6687,65.0706 61.6687,64.5706 59.5,65C 54.8454,67.7527 49.8454,69.7527 44.5,71C 41.1667,78.3333 37.8333,78.3333 34.5,71C 28.9709,69.7085 23.9709,67.3752 19.5,64C 16.3959,63.8733 13.3959,63.7066 10.5,63.5C 9.58529,62.6721 8.91862,61.6721 8.5,60.5C 9.59206,58.8169 10.2587,56.9836 10.5,55C 9.47504,51.1185 8.30838,47.2852 7,43.5C 2.22199,42.6612 0.721995,39.9946 2.5,35.5C 4.61448,34.9661 6.44782,33.9661 8,32.5C 9.21665,28.3447 10.7167,24.3447 12.5,20.5C 9.30021,16.5828 9.96688,13.5828 14.5,11.5C 16.9567,13.2249 19.6234,13.7249 22.5,13C 25.5521,11.0651 28.8855,9.73179 32.5,9C 33.4162,8.62576 34.2496,8.12576 35,7.5C 35.4238,4.97457 36.5905,2.97457 38.5,1.5 Z M 38.5,27.5 C 32.6904,29.319 29.357,33.319 28.5,39.5C 31.9182,49.5921 38.5848,52.4254 48.5,48C 54.2808,43.314 54.9474,37.9807 50.5,32C 47.1542,28.8282 43.1542,27.3282 38.5,27.5 Z"/></g>
<g><path style="opacity:1" fill="#000000" d="M 37.5,25.5 C 49.919,25.2648 55.7523,31.2648 55,43.5C 49.1575,52.5555 41.3241,54.7221 31.5,50C 23.4347,39.3429 25.4347,31.1762 37.5,25.5 Z M 38.5,27.5 C 32.6904,29.319 29.357,33.319 28.5,39.5C 31.9182,49.5921 38.5848,52.4254 48.5,48C 54.2808,43.314 54.9474,37.9807 50.5,32C 47.1542,28.8282 43.1542,27.3282 38.5,27.5 Z"/></g>
</svg>
